<?xml version="1.0" encoding="UTF-8" standalone="no"?>
<!-- Created with Inkscape (http://www.inkscape.org/) -->

<svg
   width="100mm"
   height="100mm"
   viewBox="0 0 100 100"
   version="1.1"
   id="svg1"
   inkscape:version="1.3.2 (091e20e, 2023-11-25, custom)"
   sodipodi:docname="IntelliJens_Design.svg"
   xml:space="preserve"
   xmlns:inkscape="http://www.inkscape.org/namespaces/inkscape"
   xmlns:sodipodi="http://sodipodi.sourceforge.net/DTD/sodipodi-0.dtd"
   xmlns="http://www.w3.org/2000/svg"
   xmlns:svg="http://www.w3.org/2000/svg"><sodipodi:namedview
     id="namedview1"
     pagecolor="#505050"
     bordercolor="#ffffff"
     borderopacity="1"
     inkscape:showpageshadow="0"
     inkscape:pageopacity="0"
     inkscape:pagecheckerboard="1"
     inkscape:deskcolor="#505050"
     inkscape:document-units="mm"
     inkscape:zoom="1.6204616"
     inkscape:cx="63.870691"
     inkscape:cy="304.54286"
     inkscape:window-width="3840"
     inkscape:window-height="2054"
     inkscape:window-x="-11"
     inkscape:window-y="-11"
     inkscape:window-maximized="1"
     inkscape:current-layer="layer1" /><defs
     id="defs1"><rect
       x="20.364568"
       y="22.215893"
       width="337.8667"
       height="133.91246"
       id="rect1" /><rect
       x="20.364569"
       y="22.215893"
       width="337.8667"
       height="133.91246"
       id="rect1-8" /><rect
       x="20.364569"
       y="22.215893"
       width="337.8667"
       height="133.91246"
       id="rect1-8-6" /></defs><g
     inkscape:label="Layer 1"
     inkscape:groupmode="layer"
     id="layer1"><text
       xml:space="preserve"
       transform="matrix(0.26359584,0,0,0.22477776,14.586014,14.018414)"
       id="text1-7"
       style="font-style:normal;font-variant:normal;font-weight:bold;font-stretch:normal;font-size:46.3773px;font-family:'Segoe Print';-inkscape-font-specification:'Segoe Print, Bold';font-variant-ligatures:normal;font-variant-caps:normal;font-variant-numeric:normal;font-variant-east-asian:normal;white-space:pre;shape-inside:url(#rect1-8);display:inline;fill:#000000;stroke:#ffffff;stroke-opacity:1"
       x="29.777344"
       y="0"
       inkscape:label="text-Design&amp;"><tspan
         x="20.365234"
         y="61.948569"
         id="tspan1">Design &amp;</tspan></text><text
       xml:space="preserve"
       transform="matrix(0.26359584,0,0,0.22477776,7.9488108,24.262541)"
       id="text1-7-4"
       style="font-style:normal;font-variant:normal;font-weight:bold;font-stretch:normal;font-size:28.9858px;font-family:'Segoe Print';-inkscape-font-specification:'Segoe Print, Bold';font-variant-ligatures:normal;font-variant-caps:normal;font-variant-numeric:normal;font-variant-east-asian:normal;white-space:pre;shape-inside:url(#rect1-8-6);display:inline;fill:#000000;stroke:#ffffff;stroke-opacity:1"
       x="29.777344"
       y="0"
       inkscape:label="text-Productutveckling"><tspan
         x="20.365234"
         y="47.049144"
         id="tspan2">Produktutveckling</tspan></text><text
       xml:space="preserve"
       transform="matrix(0.32307175,0,0,0.34343139,-4.402841,-4.6177353)"
       id="text1"
       style="font-style:normal;font-variant:normal;font-weight:normal;font-stretch:normal;font-size:57.9716px;font-family:'Segoe Print';-inkscape-font-specification:'Segoe Print, Normal';font-variant-ligatures:normal;font-variant-caps:normal;font-variant-numeric:normal;font-variant-east-asian:normal;white-space:pre;shape-inside:url(#rect1);display:inline;fill:#000000;stroke:#ffffff;stroke-opacity:1"
       x="29.777344"
       y="0"
       inkscape:label="text-IntelliJens"><tspan
         x="20.365234"
         y="71.948286"
         id="tspan3">IntelliJens</tspan></text><g
       id="g1"
       transform="matrix(0.84181617,0,0,0.84181617,21.840744,39.637885)"><polygon
         points="7,9 7,17 3,17 3,47 7,47 7,55 14,55 14,61 28,61 28,57 32,57 32,7 28,7 28,3 14,3 14,9 "
         style="fill:#ffffff;fill-opacity:1"
         id="polygon1" /><polygon
         points="57,9 57,17 61,17 61,47 57,47 57,55 50,55 50,61 36,61 36,57 32,57 32,7 36,7 36,3 50,3 50,9 "
         style="fill:#ffffff;fill-opacity:1"
         id="polygon2" /><path
         d="M 25,13 H 23 V 7 a 1,1 0 0 1 1,-1 h 4 v 2 h -3 z"
         style="fill:#ffffff"
         id="path2" /><path
         d="m 29,57 h -2 v -5 h -4 a 1,1 0 0 1 -1,-1 v -4 h 2 v 3 h 4 a 1,1 0 0 1 1,1 z"
         style="fill:#ffffff"
         id="path3" /><path
         d="m 18,56 h -4 v -2 h 3 V 43 a 1,1 0 0 1 1,-1 h 6 v 2 h -5 v 11 a 1,1 0 0 1 -1,1 z"
         style="fill:#ffffff"
         id="path4" /><path
         d="M 12,48 H 7 v -2 h 4 V 39 H 9 v 2 H 7 v -3 a 1,1 0 0 1 1,-1 h 4 a 1,1 0 0 1 1,1 v 9 a 1,1 0 0 1 -1,1 z"
         style="fill:#ffffff"
         id="path5" /><path
         d="M 24,24 H 18 A 1,1 0 0 1 17,23 V 18 H 14 A 1,1 0 0 1 13,17 V 9 h 2 v 7 h 3 a 1,1 0 0 1 1,1 v 5 h 5 z"
         style="fill:#ffffff"
         id="path6" /><path
         d="M 12,28 H 7 A 1,1 0 0 1 6,27 V 17 h 2 v 9 h 4 z"
         style="fill:#ffffff"
         id="path7" /><path
         d="M 41,13 H 39 V 8 H 36 V 6 h 4 a 1,1 0 0 1 1,1 z"
         style="fill:#ffffff"
         id="path8" /><path
         d="m 37,57 h -2 v -6 a 1,1 0 0 1 1,-1 h 4 v -3 h 2 v 4 a 1,1 0 0 1 -1,1 h -4 z"
         style="fill:#ffffff"
         id="path9" /><path
         d="M 50,56 H 46 A 1,1 0 0 1 45,55 V 44 h -5 v -2 h 6 a 1,1 0 0 1 1,1 v 11 h 3 z"
         style="fill:#ffffff"
         id="path10" /><path
         d="m 57,48 h -5 a 1,1 0 0 1 -1,-1 v -9 a 1,1 0 0 1 1,-1 h 4 a 1,1 0 0 1 1,1 v 3 h -2 v -2 h -2 v 7 h 4 z"
         style="fill:#ffffff"
         id="path11" /><path
         d="m 46,24 h -6 v -2 h 5 v -5 a 1,1 0 0 1 1,-1 h 3 V 9 h 2 v 8 a 1,1 0 0 1 -1,1 h -3 v 5 a 1,1 0 0 1 -1,1 z"
         style="fill:#ffffff"
         id="path12" /><path
         d="m 57,28 h -5 v -2 h 4 v -9 h 2 v 10 a 1,1 0 0 1 -1,1 z"
         style="fill:#ffffff"
         id="path13" /><path
         d="M 61,16 H 58 V 9 A 1,1 0 0 0 57,8 H 51 V 3 A 1,1 0 0 0 50,2 H 36 A 1,1 0 0 0 35,3 V 6 H 29 V 3 A 1,1 0 0 0 28,2 H 14 A 1,1 0 0 0 13,3 V 8 H 7 A 1,1 0 0 0 6,9 v 7 H 3 a 1,1 0 0 0 -1,1 v 30 a 1,1 0 0 0 1,1 h 3 v 7 a 1,1 0 0 0 1,1 h 6 v 5 a 1,1 0 0 0 1,1 h 14 a 1,1 0 0 0 1,-1 v -3 h 6 v 3 a 1,1 0 0 0 1,1 h 14 a 1,1 0 0 0 1,-1 v -5 h 6 a 1,1 0 0 0 1,-1 v -7 h 3 a 1,1 0 0 0 1,-1 V 17 a 1,1 0 0 0 -1,-1 z m -1,30 h -7 v -7 h 2 v 2 h 2 v -3 a 1,1 0 0 0 -1,-1 h -4 a 1,1 0 0 0 -1,1 v 9 a 1,1 0 0 0 1,1 h 4 v 6 H 47 V 43 a 1,1 0 0 0 -1,-1 h -6 v 2 h 5 v 11 a 1,1 0 0 0 1,1 h 3 v 4 H 37 v -8 h 4 a 1,1 0 0 0 1,-1 v -4 h -2 v 3 h -4 a 1,1 0 0 0 -1,1 v 5 H 33 V 40.212 H 31 V 56 h -2 v -5 a 1,1 0 0 0 -1,-1 h -4 v -3 h -2 v 4 a 1,1 0 0 0 1,1 h 4 v 8 H 15 v -4 h 3 a 1,1 0 0 0 1,-1 V 44 h 5 v -2 h -6 a 1,1 0 0 0 -1,1 V 54 H 8 v -6 h 4 a 1,1 0 0 0 1,-1 V 38 A 1,1 0 0 0 12,37 H 8 a 1,1 0 0 0 -1,1 v 3 h 2 v -2 h 2 v 7 H 4 V 18 h 2 v 9 a 1,1 0 0 0 1,1 h 5 V 26 H 8 V 10 h 5 v 7 a 1,1 0 0 0 1,1 h 3 v 5 a 1,1 0 0 0 1,1 h 6 V 22 H 19 V 17 A 1,1 0 0 0 18,16 H 15 V 4 h 12 v 2 h -3 a 1,1 0 0 0 -1,1 v 6 h 2 V 8 h 6 v 16 h 2 V 8 h 6 v 5 h 2 V 7 A 1,1 0 0 0 40,6 H 37 V 4 h 12 v 12 h -3 a 1,1 0 0 0 -1,1 v 5 h -5 v 2 h 6 a 1,1 0 0 0 1,-1 v -5 h 3 a 1,1 0 0 0 1,-1 v -7 h 5 v 16 h -4 v 2 h 5 a 1,1 0 0 0 1,-1 v -9 h 2 z"
         id="path14"
         style="fill:#000000;fill-opacity:1" /><path
         d="m 38.8,33.848 2,-0.711 v -2.274 l -2,-0.711 -0.681,-1.652 0.912,-1.921 -1.607,-1.607 -1.921,0.912 -1.655,-0.684 -0.711,-2 h -2.274 l -0.711,2 -1.655,0.686 -1.921,-0.912 -1.607,1.607 0.912,1.921 -0.681,1.65 -2,0.711 v 2.274 l 2,0.711 0.686,1.655 -0.912,1.921 1.607,1.607 1.921,-0.912 1.655,0.685 0.711,2 h 2.274 l 0.711,-2 1.655,-0.685 1.921,0.912 1.607,-1.607 L 38.119,35.5 Z M 32,35 a 3,3 0 1 1 3,-3 3,3 0 0 1 -3,3 z"
         style="fill:#0f71d1;fill-opacity:1;stroke:#000000;stroke-opacity:1"
         id="path15" /></g></g></svg>
